<svg class="svg-icon" style="width: 50px;height: 50px;vertical-align: middle;fill: currentColor;overflow: hidden;" viewBox="0 0 1024 1024" version="1.1" xmlns="http://www.w3.org/2000/svg"><path d="M512 85.333333C276.48 85.333333 85.333333 276.48 85.333333 512s191.146667 426.666667 426.666667 426.666667 426.666667-191.146667 426.666667-426.666667S747.52 85.333333 512 85.333333z m0 128c70.826667 0 128 57.173333 128 128s-57.173333 128-128 128-128-57.173333-128-128 57.173333-128 128-128z m0 605.866667a307.2 307.2 0 0 1-256-137.386667c1.28-84.906667 170.666667-131.413333 256-131.413333 84.906667 0 254.72 46.506667 256 131.413333a307.2 307.2 0 0 1-256 137.386667z"  /></svg>